<svg xmlns="http://www.w3.org/2000/svg" width="301.915" height="483.574" viewBox="0 0 301.915 483.574">
  <g id="buddhist-yoga-pose" transform="translate(-69.499 0.001)" opacity="0.07">
    <path id="Path_77" data-name="Path 77" d="M319.027,410.469c-4.363-.676-7.656-1.144-10.337-1.521a95.163,95.163,0,0,1-20.073-4.48c-3.794-1.182-18.636-16.151-18.636-45.449,0-37.744,8.962-71.075,12.812-83.652.1-.328.353-1.278.7-2.564.636-2.362,5.309-16.623,5.309-16.623a198.767,198.767,0,0,0,6.858-22.468l.092-.395c2.571-11.161,11.01-51.959,11.608-108.392,0-5.694-4.734-10.649-7.561-13.608-.517-.544-.976-1.019-1.319-1.419-2.722-3.165-6.306-7.073-10.457-11.6-2.734-2.982-5.745-6.268-8.991-9.862-5.191-5.741-10.98-10.994-16.58-16.072-6.886-6.241-14-12.694-19.851-19.97-8.741-10.87-16.822-29.9-15.359-45.229a7.215,7.215,0,0,0-1.519-5.632,4.736,4.736,0,0,0-5.266-1.2,4.735,4.735,0,0,0-5.267,1.2,7.21,7.21,0,0,0-1.517,5.632c1.46,15.333-6.621,34.359-15.359,45.229-5.851,7.276-12.968,13.73-19.854,19.97-5.6,5.078-11.39,10.33-16.579,16.072-3.244,3.594-6.259,6.88-8.992,9.862-4.152,4.522-7.733,8.43-10.458,11.6-.342.4-.8.876-1.316,1.419-2.827,2.959-7.562,7.914-7.562,13.637.6,56.4,9.039,97.2,11.61,108.364l.09.395a199.206,199.206,0,0,0,6.856,22.468s4.671,14.262,5.308,16.623c.349,1.286.6,2.236.7,2.564,3.849,12.577,12.809,45.908,12.809,83.652,0,29.3-14.84,44.268-18.633,45.449a95.172,95.172,0,0,1-20.076,4.48c-2.681.378-5.972.846-10.334,1.521C74.6,415.5,69.5,438.973,69.5,448.832c0,2.643,1.368,11.229,7.609,19.146,5.608,7.112,16.777,15.6,38.157,15.6a94.5,94.5,0,0,0,10.087-.567c14.229-1.529,28.569-3.827,42.434-6.047,5.037-.806,10.065-1.612,15.1-2.384,6.71-1.029,18.8-1.711,35.939-2.025.8-.016,1.361-.027,1.631-.035.271.008.829.021,1.628.035,17.138.314,29.23,1,35.941,2.025,5.034.772,10.063,1.577,15.1,2.384,13.867,2.221,28.208,4.518,42.434,6.047a94.854,94.854,0,0,0,10.087.567c21.383,0,32.555-8.48,38.159-15.6,6.241-7.915,7.607-16.5,7.607-19.146C371.411,438.973,366.309,415.5,319.027,410.469Zm-73.568-192.16a4.683,4.683,0,0,1-2.048-.473c-2.2-.877-5.02-5.079-5.283-6.71,10.955-7.622,18.356-22.1,18.356-38.719,0-24.541-2.59-44.437-36.029-44.437s-36.029,19.9-36.029,44.437c0,16.618,7.4,31.1,18.355,38.719-.258,1.627-3.142,5.629-5.281,6.71a4.671,4.671,0,0,1-2.048.473c-7.041,0-15.865-15.418-18.182-21.554-3.948-10.426-8.877-28.345-9.934-54.5l-.043-1.006c-.271-5.509,8.027-19.6,9.126-22.007,1.511-3.318,21.113-33.2,26.934-40.275,2.061-2.5,12.5-16.367,17.1-22.486,4.6,6.119,15.04,19.983,17.1,22.486,5.825,7.078,25.422,36.957,26.935,40.275,1.1,2.41,9.4,16.5,9.129,22.007l-.043,1.006c-1.059,26.152-5.985,44.072-9.937,54.5C261.324,202.889,252.5,218.309,245.458,218.309Z" transform="translate(0 0)"/>
  </g>
</svg>
