<svg xmlns="http://www.w3.org/2000/svg" width="14.261" height="14.584" viewBox="0 0 14.261 14.584">
  <g id="calendar_2_" data-name="calendar (2)" transform="translate(-5.411)">
    <g id="Group_3" data-name="Group 3" transform="translate(5.411)">
      <path id="Path_4" data-name="Path 4" d="M118.852,258.573a.331.331,0,0,0-.331-.331h-1.155a.331.331,0,0,0-.331.331v1.155a.331.331,0,0,0,.331.331h1.155a.331.331,0,0,0,.331-.331v-1.155Z" transform="translate(-113.7 -250.527)" fill="#00b7f3"/>
      <path id="Path_5" data-name="Path 5" d="M215.487,258.573a.331.331,0,0,0-.331-.331H214a.331.331,0,0,0-.331.331v1.155a.331.331,0,0,0,.331.331h1.155a.331.331,0,0,0,.331-.331Z" transform="translate(-207.448 -250.527)" fill="#00b7f3"/>
      <path id="Path_6" data-name="Path 6" d="M312.115,258.573a.331.331,0,0,0-.331-.331h-1.155a.331.331,0,0,0-.331.331v1.155a.331.331,0,0,0,.331.331h1.155a.331.331,0,0,0,.331-.331Z" transform="translate(-301.189 -250.527)" fill="#00b7f3"/>
      <path id="Path_7" data-name="Path 7" d="M118.852,355.206a.331.331,0,0,0-.331-.331h-1.155a.331.331,0,0,0-.331.331v1.155a.331.331,0,0,0,.331.331h1.155a.331.331,0,0,0,.331-.331v-1.155Z" transform="translate(-113.7 -344.272)" fill="#00b7f3"/>
      <path id="Path_8" data-name="Path 8" d="M215.487,355.206a.331.331,0,0,0-.331-.331H214a.331.331,0,0,0-.331.331v1.155a.331.331,0,0,0,.331.331h1.155a.331.331,0,0,0,.331-.331Z" transform="translate(-207.448 -344.272)" fill="#00b7f3"/>
      <path id="Path_9" data-name="Path 9" d="M312.115,355.206a.331.331,0,0,0-.331-.331h-1.155a.331.331,0,0,0-.331.331v1.155a.331.331,0,0,0,.331.331h1.155a.331.331,0,0,0,.331-.331v-1.155Z" transform="translate(-301.189 -344.272)" fill="#00b7f3"/>
      <path id="Path_10" data-name="Path 10" d="M18.4,54.148v1.764a1.441,1.441,0,0,1-1.444,1.44h-.911a1.448,1.448,0,0,1-1.453-1.44V54.142H10.488v1.771a1.448,1.448,0,0,1-1.453,1.44H8.125a1.441,1.441,0,0,1-1.444-1.44V54.148a1.313,1.313,0,0,0-1.269,1.306V65.794a1.314,1.314,0,0,0,1.307,1.315H18.365a1.315,1.315,0,0,0,1.307-1.315V55.455A1.313,1.313,0,0,0,18.4,54.148Zm-.423,11a.565.565,0,0,1-.565.565H7.644a.565.565,0,0,1-.565-.565V59.809a.565.565,0,0,1,.565-.565h9.771a.565.565,0,0,1,.565.565V65.15Z" transform="translate(-5.411 -52.524)" fill="#00b7f3"/>
      <path id="Path_11" data-name="Path 11" d="M80.045,3.882h.9a.5.5,0,0,0,.5-.495V.5a.5.5,0,0,0-.5-.5h-.9a.5.5,0,0,0-.5.5V3.387A.5.5,0,0,0,80.045,3.882Z" transform="translate(-77.335)" fill="#00b7f3"/>
      <path id="Path_12" data-name="Path 12" d="M344.953,3.882h.9a.5.5,0,0,0,.5-.495V.5a.5.5,0,0,0-.5-.5h-.9a.5.5,0,0,0-.5.5V3.387A.5.5,0,0,0,344.953,3.882Z" transform="translate(-334.328)" fill="#00b7f3"/>
    </g>
  </g>
</svg>
