<svg xmlns="http://www.w3.org/2000/svg" width="18.974" height="13.553" viewBox="0 0 18.974 13.553">
  <g id="facetime-button" transform="translate(0 -73.09)">
    <path id="Path_72" data-name="Path 72" d="M18.561,73.482a.738.738,0,0,0-.265-.053.63.63,0,0,0-.476.2l-4.267,4.257V76.139A3.055,3.055,0,0,0,10.5,73.09H3.049a2.938,2.938,0,0,0-2.155.895A2.938,2.938,0,0,0,0,76.139v7.454a2.937,2.937,0,0,0,.895,2.155,2.937,2.937,0,0,0,2.155.895H10.5a3.055,3.055,0,0,0,3.049-3.049V81.836L17.82,86.1a.63.63,0,0,0,.476.2.739.739,0,0,0,.265-.053.633.633,0,0,0,.413-.625V74.106A.633.633,0,0,0,18.561,73.482Z" fill="#3bafee"/>
  </g>
</svg>
