<?xml version="1.0"?>
<svg xmlns="http://www.w3.org/2000/svg" height="512px" viewBox="0 0 480 480" width="512px" class=""><g><path d="m350.871094 212.480469c-3.238282-41.023438-23.957032-78.671875-56.878906-103.359375-20.460938-15.644532-44.800782-25.410156-70.402344-28.242188-2.796875-.320312-5.597656-.558594-8.316406-.71875-39.511719-2.152344-78.167969 12.039063-106.902344 39.242188-28.730469 27.203125-45.011719 65.027344-45.019532 104.597656l-53.601562 67.039062c-1.894531 2.402344-2.257812 5.675782-.929688 8.429688 1.328126 2.757812 4.113282 4.515625 7.171876 4.53125h31.359374v56c0 17.671875 14.328126 32 32 32h48v80h176v-140.71875c33.585938-29.960938 51.179688-73.941406 47.519532-118.800781zm0 0" fill="#ffc477" data-original="#FFC477"/><path d="m471.351562 144c0 75.109375-60.890624 136-136 136-75.109374 0-136-60.890625-136-136s60.890626-136 136-136c75.109376 0 136 60.890625 136 136zm0 0" fill="#44ffe8" data-original="#44FFE8" class="" data-old_color="#44ffe8" style="fill:#FFFFFF"/><path d="m335.351562 48c-53.019531 0-96 42.980469-96 96s42.980469 96 96 96c53.019532 0 96-42.980469 96-96s-42.980468-96-96-96zm-48 88c-8.835937.132812-16.105468-6.921875-16.238281-15.761719-.132812-8.835937 6.921875-16.105469 15.757813-16.238281h.480468c7.5.011719 13.988282 5.234375 15.601563 12.558594 1.082031 4.734375-.058594 9.707031-3.097656 13.496094-3.042969 3.785156-7.648438 5.976562-12.503907 5.945312zm96 0c-8.835937 0-16-7.164062-16-16s7.164063-16 16-16c8.835938 0 16 7.164062 16 16-.027343 8.824219-7.175781 15.972656-16 16zm0 0" fill="#ffd422" data-original="#FFD422" class=""/><path d="m399.351562 120c0 8.835938-7.164062 16-16 16-8.835937 0-16-7.164062-16-16s7.164063-16 16-16c8.835938 0 16 7.164062 16 16zm0 0" fill="#ff5023" data-original="#FF5023" class=""/><path d="m287.351562 104h-.480468c-8.933594.132812-16.089844 7.445312-16.023438 16.382812.066406 8.933594 7.328125 16.144532 16.265625 16.144532 8.933594 0 16.195313-7.210938 16.261719-16.144532.066406-8.9375-7.089844-16.25-16.023438-16.382812zm0 0" fill="#ff5023" data-original="#FF5023" class=""/><path d="m311.351562 120c0-13.253906-10.746093-24-24-24-13.253906 0-24 10.746094-24 24s10.746094 24 24 24c13.253907 0 24-10.746094 24-24zm-32 0c0-4.417969 3.582032-8 8-8 4.417969 0 8 3.582031 8 8s-3.582031 8-8 8c-4.417968 0-8-3.582031-8-8zm0 0" data-original="#000000" class="active-path"/><path d="m383.351562 144c13.253907 0 24-10.746094 24-24s-10.746093-24-24-24c-13.253906 0-24 10.746094-24 24s10.746094 24 24 24zm0-32c4.417969 0 8 3.582031 8 8s-3.582031 8-8 8c-4.417968 0-8-3.582031-8-8s3.582032-8 8-8zm0 0" data-original="#000000" class="active-path"/><path d="m383.863281 204 13.847657-8c-12.859376-22.28125-36.632813-36.011719-62.359376-36.011719-25.726562 0-49.5 13.730469-62.359374 36.011719l13.847656 8c10-17.339844 28.496094-28.023438 48.511718-28.023438 20.015626 0 38.511719 10.683594 48.511719 28.023438zm0 0" data-original="#000000" class="active-path"/><path d="m439.351562 144c0-57.4375-46.5625-104-104-104s-104 46.5625-104 104 46.5625 104 104 104c57.410157-.066406 103.933594-46.589844 104-104zm-192 0c0-48.601562 39.398438-88 88-88 48.601563 0 88 39.398438 88 88s-39.398437 88-88 88c-48.578124-.058594-87.941406-39.421875-88-88zm0 0" data-original="#000000" class="active-path"/><path d="m298.023438 325.320312c-1.699219 1.515626-2.667969 3.683594-2.671876 5.960938v132.71875h-160v-72c0-4.417969-3.582031-8-8-8h-48c-13.253906 0-24-10.746094-24-24v-56c0-4.417969-3.582031-8-8-8h-31.351562l53.597656-67c1.136719-1.417969 1.753906-3.183594 1.753906-5-.136718-69.320312 51.976563-127.605469 120.878907-135.199219l-1.757813-15.90625c-75.945312 8.355469-133.835937 71.875-135.121094 148.265625l-51.847656 64.847656c-3.839844 4.804688-4.589844 11.382813-1.925781 16.925782 2.667969 5.542968 8.273437 9.066406 14.421875 9.066406h23.351562v48c.027344 22.082031 17.917969 39.972656 40 40h40v72c0 4.417969 3.582032 8 8 8h176c4.417969 0 8-3.582031 8-8v-137.199219c8.5625-8.03125 16.167969-17.023437 22.664063-26.800781l-13.328125-8.800781c-6.417969 9.632812-14.03125 18.410156-22.664062 26.121093zm0 0" data-original="#000000" class="active-path"/><path d="m327.351562 0h16v16h-16zm0 0" data-original="#000000" class="active-path"/><path d="m290.351562 6.980469 15.453126-4.148438 4.152343 15.460938-15.453125 4.148437zm0 0" data-original="#000000" class="active-path"/><path d="m256.425781 23.292969 13.855469-8 8.003906 13.855469-13.859375 8zm0 0" data-original="#000000" class="active-path"/><path d="m227.871094 47.828125 11.316406-11.3125 11.3125 11.316406-11.316406 11.3125zm0 0" data-original="#000000" class="active-path"/><path d="m206.640625 78.929688 8-13.855469 13.855469 8-8 13.855469zm0 0" data-original="#000000" class="active-path"/><path d="m194.1875 114.460938 4.140625-15.457032 15.457031 4.140625-4.140625 15.457031zm0 0" data-original="#000000" class="active-path"/><path d="m191.351562 136h16v16h-16zm0 0" data-original="#000000" class="active-path"/><path d="m194.1875 173.539062 15.457031-4.140624 4.140625 15.457031-15.453125 4.140625zm0 0" data-original="#000000" class="active-path"/><path d="m206.636719 209.066406 13.859375-7.996094 7.996094 13.855469-13.855469 8zm0 0" data-original="#000000" class="active-path"/><path d="m227.867188 240.171875 11.316406-11.3125 11.3125 11.3125-11.3125 11.316406zm0 0" data-original="#000000" class="active-path"/><path d="m256.421875 264.710938 8-13.855469 13.855469 8-8 13.855469zm0 0" data-original="#000000" class="active-path"/><path d="m290.351562 281.019531 4.148438-15.460937 15.453125 4.148437-4.148437 15.460938zm0 0" data-original="#000000" class="active-path"/><path d="m327.351562 272h16v16h-16zm0 0" data-original="#000000" class="active-path"/><path d="m360.753906 269.710938 15.453125-4.144532 4.148438 15.460938-15.453125 4.144531zm0 0" data-original="#000000" class="active-path"/><path d="m392.417969 258.847656 13.855469-8 8.003906 13.855469-13.859375 8zm0 0" data-original="#000000" class="active-path"/><path d="m420.207031 240.160156 11.316407-11.3125 11.308593 11.316406-11.3125 11.3125zm0 0" data-original="#000000" class="active-path"/><path d="m442.203125 214.933594 8-13.855469 13.855469 7.996094-7.996094 13.859375zm0 0" data-original="#000000" class="active-path"/><path d="m456.917969 184.855469 4.140625-15.453125 15.457031 4.140625-4.140625 15.453125zm0 0" data-original="#000000" class="active-path"/><path d="m463.351562 136h16v16h-16zm0 0" data-original="#000000" class="active-path"/><path d="m456.917969 103.144531 15.457031-4.140625 4.140625 15.457032-15.453125 4.140624zm0 0" data-original="#000000" class="active-path"/><path d="m442.203125 73.074219 13.855469-8 8 13.855469-13.855469 8zm0 0" data-original="#000000" class="active-path"/><path d="m420.199219 47.839844 11.3125-11.316406 11.316406 11.316406-11.316406 11.3125zm0 0" data-original="#000000" class="active-path"/><path d="m392.417969 29.148438 8-13.855469 13.855469 7.996093-8 13.859376zm0 0" data-original="#000000" class="active-path"/><path d="m360.746094 18.285156 4.152344-15.460937 15.453124 4.148437-4.152343 15.460938zm0 0" data-original="#000000" class="active-path"/></g> </svg>
