<svg height="511pt" viewBox="-73 0 511 511.99961" width="511pt" xmlns="http://www.w3.org/2000/svg"><path d="m242.5 442c0 33.136719-26.863281 60-60 60s-60-26.863281-60-60zm0 0" fill="#cff1fb"/><path d="m262.5 354v68c0 11.046875-8.953125 20-20 20h-120c-11.046875 0-20-8.953125-20-20v-68zm0 0" fill="#8690a6"/><path d="m354.5 182c0-96.164062-78.914062-173.894531-175.515625-171.964844-94.054687 1.875-169.546875 79.898438-168.472656 173.964844.667969 58.78125 30.832031 110.46875 76.375 140.980469 9.703125 6.503906 15.613281 17.335937 15.613281 29.019531h160v-.003906c0-11.605469 5.78125-22.445313 15.429688-28.890625 46.164062-30.84375 76.570312-83.417969 76.570312-143.105469zm0 0" fill="#ffcb7c"/><path d="m262.5 176.003906c0 44.179688-35.816406 80-80 80s-80-35.820312-80-80c0-44.183594 35.816406-80.003906 80-80.003906s80 35.820312 80 80.003906zm0 0" fill="#cbe558"/><path d="m309.894531 52.019531c-35.203125-34.507812-81.773437-52.957031-131.109375-51.9843748-40.976562.8203128-79.457031 15.0273438-111.28125 41.0859378-30.847656 25.261718-52.890625 60.363281-62.070312 98.835937-1.28125 5.371094 2.035156 10.765625 7.40625 12.046875 5.371094 1.285156 10.765625-2.03125 12.046875-7.40625 17.148437-71.871094 80.597656-123.09375 154.296875-124.566406 43.941406-.882812 85.378906 15.558594 116.710937 46.273438 31.34375 30.722656 48.605469 71.8125 48.605469 115.695312 0 54.226562-26.960938 104.617188-72.125 134.789062-9.617188 6.425782-16.238281 16.1875-18.75 27.210938h-61.125v-78.558594c44.9375-4.992187 80-43.195312 80-89.441406 0-49.625-40.375-90-90-90s-90 40.375-90 90c0 46.246094 35.0625 84.453125 80 89.441406v78.558594h-61.136719c-2.535156-11.023438-9.214843-20.828125-18.910156-27.324219-34.183594-22.902343-58.195313-57.441406-67.609375-97.25-1.273438-5.375-6.65625-8.703125-12.035156-7.429687-5.375 1.269531-8.699219 6.65625-7.429688 12.03125 10.582032 44.738281 37.550782 83.542968 75.941406 109.261718 7 4.691407 11.179688 12.433594 11.179688 20.710938v68c0 13.234375 8.613281 24.484375 20.527344 28.457031 4.195312 34.621094 33.738281 61.542969 69.472656 61.542969s65.277344-26.921875 69.472656-61.542969c11.910156-3.972656 20.527344-15.222656 20.527344-28.457031v-68-.003906c0-8.289063 4.105469-15.980469 10.984375-20.574219 50.730469-33.894531 81.015625-90.5 81.015625-151.421875 0-49.300781-19.390625-95.460938-54.605469-129.980469zm-197.394531 123.984375c0-38.601562 31.402344-70.003906 70-70.003906s70 31.402344 70 70.003906c0 38.585938-31.382812 69.980469-69.96875 69.996094-.011719 0-.019531 0-.03125 0s-.019531 0-.03125 0c-38.585938-.015625-69.96875-31.410156-69.96875-69.996094zm0 187.996094h140v24h-140zm0 44h140v14c0 5.511719-4.484375 10-10 10h-120c-5.515625 0-10-4.488281-10-10zm70 84c-24.144531 0-44.347656-17.207031-48.992188-40h97.988282c-4.648438 22.792969-24.847656 40-48.996094 40zm0 0"/><path d="m183.230469 206.695312 36.484375-36.480468c3.902344-3.90625 3.90625-10.238282 0-14.144532s-10.238282-3.902343-14.144532 0l-29.410156 29.414063-13.722656-13.722656c-3.902344-3.90625-10.234375-3.90625-14.140625 0s-3.90625 10.238281 0 14.144531l20.792969 20.789062c1.953125 1.953126 4.511718 2.929688 7.070312 2.929688s5.117188-.976562 7.070313-2.929688zm0 0"/><path d="m17.570312 189.070312c1.859376-1.863281 2.929688-4.441406 2.929688-7.070312 0-2.632812-1.070312-5.210938-2.929688-7.070312-1.859374-1.859376-4.441406-2.929688-7.070312-2.929688s-5.210938 1.070312-7.070312 2.929688c-1.859376 1.859374-2.929688 4.4375-2.929688 7.070312 0 2.628906 1.070312 5.207031 2.929688 7.070312 1.859374 1.859376 4.441406 2.929688 7.070312 2.929688s5.210938-1.070312 7.070312-2.929688zm0 0"/></svg>