<svg xmlns="http://www.w3.org/2000/svg" width="24.409" height="20.274" viewBox="0 0 24.409 20.274">
  <g id="left-arrow_2_" data-name="left-arrow (2)" transform="translate(0 -41.674)">
    <g id="Group_15" data-name="Group 15" transform="translate(0 41.674)">
      <path id="Path_67" data-name="Path 67" d="M23.037,49.9l.038.008H6.742l5.135-5.146a1.349,1.349,0,0,0,0-1.9l-.8-.8a1.336,1.336,0,0,0-1.886,0l-8.8,8.8a1.346,1.346,0,0,0,0,1.893l8.8,8.8a1.338,1.338,0,0,0,1.886,0l.8-.8a1.322,1.322,0,0,0,.389-.943,1.282,1.282,0,0,0-.389-.925L6.684,53.717H23.055a1.383,1.383,0,0,0,1.354-1.369V51.217A1.357,1.357,0,0,0,23.037,49.9Z" transform="translate(0 -41.674)" fill="#fff"/>
    </g>
  </g>
</svg>
