<svg xmlns="http://www.w3.org/2000/svg" width="12.295" height="16.393" viewBox="0 0 12.295 16.393">
  <g id="lock" transform="translate(-64)">
    <g id="Group_2" data-name="Group 2" transform="translate(64)">
      <path id="Path_3" data-name="Path 3" d="M75.954,6.148H74.929V4.781a4.781,4.781,0,1,0-9.563,0V6.148H64.342A.341.341,0,0,0,64,6.489v8.538a1.367,1.367,0,0,0,1.366,1.366h9.563A1.367,1.367,0,0,0,76.3,15.027V6.489A.341.341,0,0,0,75.954,6.148ZM71.17,13.282a.342.342,0,0,1-.34.379H69.464a.342.342,0,0,1-.34-.379l.215-1.937a1.351,1.351,0,0,1-.559-1.1,1.366,1.366,0,0,1,2.732,0,1.351,1.351,0,0,1-.559,1.1Zm1.71-7.134H67.415V4.781a2.732,2.732,0,1,1,5.464,0Z" transform="translate(-64)" fill="#00b7f3"/>
    </g>
  </g>
</svg>
