<svg id="Layer_1" enable-background="new 0 0 512.161 512.161" height="512" viewBox="0 0 512.161 512.161" width="512" xmlns="http://www.w3.org/2000/svg"><path d="m283.671 35.751v21.17h-55.18v-21.17c0-15.25 12.35-27.59 27.59-27.59 15.246 0 27.59 12.33 27.59 27.59z" fill="#6d6d6d"/><path d="m449.181 454.001c0 27.692-22.439 50.16-50.16 50.16h-285.88c-40.009 0-63.542-44.46-42.06-77.49 5.18-7.98 12.62-14.49 21.68-18.51l94.35-27.59h137.94l94.35 27.59c18.132 8.058 29.78 26.055 29.78 45.84z" fill="#5fc68f"/><path d="m448.821 448.031c0 16.13-35.94 32.13-49.8 32.13-12.634 0-22.94-10.236-22.94-22.94v-15.625l-82.996 6.142c-8.468 1.21-17.103-.192-24.753-4.017-13.855-6.927-27.308-6.597-39.057-.722-8.535 4.268-18.275 5.508-27.617 3.506l-65.576-4.909v15.625c0 12.634-10.236 22.94-22.94 22.94-25.67 0-46.82-7.27-49.8-32.13 2.079-17.447 13.216-32.68 29.42-39.87l94.35-27.59h137.94l94.35 27.59c16.269 7.231 27.339 22.471 29.419 39.87z" fill="#7adbae"/><g fill="#b3cec9"><path d="m349.341 207.451c-14.661 78.458-24.29 50.662-24.29 173.12h-137.94c0-123.016-9.467-93.793-24.29-173.12l38.36-17.43c14.916-3.379 18.848-2.55 87.23-2.55 7.67 0 15.26.85 22.66 2.51 42.093 18.888 37.749 16.805 38.27 17.47z"/><path d="m186.681 339.201-2.63-41.38c1.29 10.34 2.15 23.17 2.63 41.38z"/><path d="m328.111 297.821-2.63 41.38c.48-18.21 1.34-31.04 2.63-41.38z"/></g><path d="m328.972 204.611c-3.899 20.865-8.909 37.176-12.764 51.195-6.424 23.136-6.829 35.699-7.703 68.868-.521 19.77-16.686 35.488-36.424 35.488h-32c-19.754 0-35.91-15.741-36.424-35.488-.949-36.449-1.777-47.523-7.703-68.868-4.224-15.36-8.86-30.3-12.764-51.195l32.906-14.952c12.721-2.882 18.08-2.187 60.61-2.187 6.579 0 13.09.729 19.438 2.153 36.114 16.204 32.381 14.414 32.828 14.986z" fill="#cae0dd"/><path d="m203.657 324.673-2.256-42.542c1.106 8.87 1.844 26.922 2.256 42.542z" fill="#cae0dd"/><path d="m310.761 282.132-2.256 42.542c.411-15.621 1.149-33.673 2.256-42.542z" fill="#cae0dd"/><path d="m421.601 308.561c0 16.84-13.683 30.64-30.64 30.64h-121.09c-7.588 0-13.79-6.15-13.79-13.8v-82.76c2.93-.21 5.59.08 8 .77 24 6.95 24 54.41 24 54.41h70.48c-9.232-11.745-52.892-67.37-53.96-68.73-6.17-6.17-8.34-14.81-6.51-22.73v-.01c1.596-6.933 6.239-13.049 12.98-16.37 13.339 2.955 26.369 8.701 37.91 17.01 66.975 85.548 72.62 84.722 72.62 101.57z" fill="#f9cfac"/><path d="m256.081 242.641v82.76c0 7.649-6.201 13.8-13.79 13.8h-121.09c-25.627 0-39.912-29.789-23.93-49.78 68.677-85.88 65.422-81.876 65.78-82.14 11.805-8.577 24.88-14.267 38.13-17.26 14.917 7.461 18.142 27.308 6.38 39.07-1.063 1.354-44.771 57.041-53.96 68.73h70.48s0-47.46 24-54.41c2.41-.69 5.07-.98 8-.77z" fill="#f9cfac"/><path d="m421.331 304.571c-.36 2.79-1.11 5.47-2.19 7.97-5.38 4.75-12.44 7.62-20.18 7.62h-121.09c-7.588 0-13.79-6.15-13.79-13.8v-62.95c24 6.95 24 54.41 24 54.41h70.48l-6.32-8.04h14.32c0-7.037-2.318-13.959-6.79-19.65-21.777-27.728-11.178-14.229-47.17-60.08-4.139-4.139-6.51-10.14-6.51-11.74.58-2.51 1.56-4.95 2.95-7.21.66-.41 1.34-.78 2.03-1.12 19.71 4.367 36.548 15.27 38.27 17.47l65.55 81.97c3.681 4.605 5.828 10.057 6.44 15.15z" fill="#ffe4cc"/><path d="m248.081 243.411v62.95c0 7.649-6.201 13.8-13.79 13.8h-121.09c-7.74 0-14.8-2.87-20.18-7.62-1.08-2.5-1.83-5.18-2.19-7.97.61-5.079 2.75-10.535 6.44-15.15 68.677-85.88 65.422-81.876 65.78-82.14 11.805-8.577 24.88-14.267 38.13-17.26.66.33 1.31.69 1.95 1.09 1.38 2.26 2.36 4.69 2.94 7.2-1.487 6.474 1.894 1.061-53.68 71.82-4.4 5.6-6.79 12.52-6.79 19.65h14.32l-6.32 8.04h70.48s0-47.46 24-54.41z" fill="#ffe4cc"/><path d="m311.251 99.701c0 28.556-9.269 46.168-17.34 64.48-13.633 30.988-62.029 30.984-75.66 0l-7.1-16.11c-9.379-21.367-11.496-44.138-9.66-55.69 3.858-23.957 26.524-42.84 54.59-42.84 30.277 0 55.17 22.258 55.17 50.16z" fill="#f9cfac"/><path d="m310.671 92.372c-2.097 21.714-8.961 35.114-16.76 52.81-13.633 30.988-62.029 30.984-75.66 0-8.127-18.441-14.601-30.928-16.76-52.8 6.454-40.084 61.157-57.647 93.61-28.15 8.19 7.44 13.81 17.21 15.57 28.14z" fill="#ffe4cc"/><path d="m311.091 95.911c-54.7-22.71-55.34 39.51-110.07 8.94-.07-1.71-.11-3.43-.11-5.15 0-27.874 24.861-50.16 55.17-50.16 28.657 0 52.857 20.052 55.01 46.37z" fill="#6d6d6d"/><path d="m214.701 469.681c-30.544 15.272-33.486 15.604-37.87 22.48-2.25 3.52-3.51 7.66-3.51 12h-27.59v-51.72c80.275 20.06 26.23 6.555 68.97 17.24z" fill="#f9cfac"/><path d="m366.431 452.441v51.72h-193.11c0-7.77 4.046-14.823 10.34-18.83 1.324-.848-.658.199 31.04-15.65 13.999-9.338 18.682-13.8 28.93-13.8 12.174 0 21.915 7.667 25.38 18.08l.86 2.61z" fill="#f9cfac"/><path d="m192.991 464.251c-7.425 3.718-10.598 4.877-14.16 8.95-8.554 9.795-19.351 14.68-33.1 14.68v-35.44z" fill="#ffe4cc"/><path d="m366.431 452.441v35.44h-178.9c-1.9 0-3.26-1.12-3.87-2.55.64-.41 1.31-.79 2-1.13 34.89-17.445 25.395-12.093 42.94-23.79 14.279-9.508 34.7-3.613 40.41 13.55l.86 2.61z" fill="#ffe4cc"/><path d="m299.401 68.622c-16.441 13.854-65.856 15.887-89.39 3.46 20.714-28.457 66.014-30.324 89.39-3.46z" fill="#797a7a"/><path d="m283.671 36.811c-16.484 4.84-38.855 4.718-55.18-.62 0-25.542 30.026-36.976 47.11-19.96 5.316 5.338 8.07 12.008 8.07 20.58z" fill="#797a7a"/><path d="m504.081 496.161h-65.186c30.626-28.896 21.166-78.84-16.244-95.47-.759-.338 5.129 1.425-89.594-26.274.022-10.418.105-19.468.25-27.376h57.654c32.681 0 50.13-37.874 30.178-62.776l-15.21-19.02c-2.759-3.45-7.793-4.011-11.244-1.251s-4.012 7.794-1.252 11.245l15.215 19.026c11.685 14.583 1.452 36.777-17.687 36.777-131.927 0-122.758.717-125.171-1.675-2.44-2.461-1.709 2.023-1.709-77.545 12.027 6.168 15.975 32.525 16 45.84 0 4.418 3.582 8 8 8h70.48c6.654 0 10.412-7.693 6.292-12.941l-38.479-49.008c-2.727-3.474-7.755-4.083-11.232-1.354-3.476 2.728-4.081 7.757-1.354 11.232l11.898 15.155c-1.841 6.904-3.326 13.387-4.522 20.916h-25.429c-2.106-27.239-12.718-56.686-39.653-55.187-26.934-1.504-37.543 27.881-39.654 55.187h-25.429c-1.196-7.529-2.681-14.011-4.522-20.916l11.898-15.155c2.728-3.476 2.122-8.504-1.354-11.232-3.478-2.729-8.506-2.122-11.232 1.354l-38.479 49.008c-4.109 5.234-.379 12.941 6.292 12.941h70.48c4.412 0 7.992-3.58 8-7.993.025-13.415 3.998-39.692 16-45.847 0 79.466.713 75.102-1.664 77.5-2.477 2.457 7.295 1.72-125.216 1.72-19.126 0-29.381-22.184-17.682-36.783l64.875-81.126c16.331-11.662 35.551-17.82 55.637-17.82 65.067 0 88.846-4.091 119.399 17.389l9.12 11.415c2.759 3.452 7.793 4.015 11.243 1.256 3.452-2.758 4.015-7.792 1.257-11.244-10.431-13.055-10.136-12.883-11.396-13.789-17.692-12.737-38.675-19.972-60.392-20.914 6.625-7.243 8.387-13.133 15.074-28.302 7.024-15.998 10.916-33.475 10.916-51.586 0-18.809-9.767-36.844-27.583-48.063 0-16.485 1.825-28.774-10.425-41.071-22.254-22.164-60.755-6.649-60.755 25.188v15.883c-16.645 10.483-27.583 27.92-27.583 48.063 0 17.732 3.673 35.088 10.921 51.597 7.223 16.385 8.762 21.399 15.082 28.303-22.854 1.028-43.998 8.982-60.851 21.424-1.302.964 2.876-4.023-67.032 83.397-20.372 25.426-1.894 62.782 30.173 62.782h57.654c.145 7.908.227 16.958.25 27.376-94.866 27.741-88.832 25.936-89.589 26.271-37.509 16.646-46.779 66.681-16.208 95.473h-65.226c-4.418 0-8 3.582-8 8s3.582 8 8 8h496c4.418 0 8-3.582 8-8s-3.582-8-8-8zm-165.785-211.353 3.811 4.854h-4.727c.288-1.659.593-3.271.916-4.854zm-164.431 0c.324 1.583.628 3.196.916 4.854h-4.727zm62.626-249.216c0-17.372 21.134-26.131 33.441-13.874 6.721 6.748 5.738 13.654 5.738 22.515-12.719-3.801-26.44-3.807-39.18 0v-8.641zm-14.047 34.395c23.886-21.712 64.863-14.243 77.453 13.904-21.742-4.469-35.454 4.358-46.844 11.703-13.184 8.506-22.923 14.779-44.141 4.218-.001-11.899 5.124-22.182 13.532-29.825zm-12.006 47.874c21.372 7.744 34.614 1.934 51.287-8.821 11.78-7.599 22.08-14.226 41.505-7.698-.427 26.064-9.253 42.691-16.644 59.458-10.822 24.609-50.199 24.584-61.013-.006-7.404-16.795-12.368-26.428-15.135-42.933zm-18.658 354.173c-9.773 4.887-21.317 8.925-25.389 23.967h-12.656v-33.478zm-8.022 23.967c2.804-4.161 2.967-3.551 34.521-19.328.173-.087.558-.302.826-.479 15.014-10.009 17.12-12.469 24.829-12.469 7.949 0 14.975 5.066 17.481 12.606l.867 2.608c1.32 3.969 5.475 6.25 9.532 5.237l86.612-21.653v33.479h-174.668zm-112.777-42.16c0-16.623 9.744-31.528 24.559-38.318l92.717-27.112h86.904c4.418 0 8-3.582 8-8s-3.582-8-8-8h-80.062c-.027-9.558-.108-17.947-.243-25.37h47.434c5.057 0 9.865-1.723 13.786-4.92 3.897 3.186 8.721 4.92 13.794 4.92h47.433c-.198 10.986-.251 22.421-.251 33.41.007 1.554.469 3.111 1.375 4.448 2.325 3.433-3.6.858 98.191 30.624 26.593 12.212 33.005 47.342 12.215 68.132-7.962 7.962-18.55 12.347-29.813 12.347h-24.595v-37.478l7.733-1.933c4.286-1.072 6.893-5.415 5.82-9.702-1.07-4.285-5.408-6.891-9.701-5.821l-103.463 25.865c-9.512-19.357-33.71-24.638-50.655-13.336l-10.953 7.302-79.325-19.831c-4.283-1.068-8.63 1.535-9.701 5.821-1.072 4.287 1.534 8.63 5.82 9.702l7.733 1.933v37.478h-24.593c-23.247-.001-42.159-18.913-42.159-42.161z"/><path d="m380.026 253.652c6.629 0 10.463-7.74 6.233-13.009l-1.261-1.57c-2.766-3.446-7.801-3.996-11.247-1.23-3.445 2.766-3.995 7.801-1.229 11.247 1.661 2.069 3.401 4.562 7.504 4.562z"/></svg>