<svg viewBox="0 0 512 512" xmlns="http://www.w3.org/2000/svg"><path d="m512 256c0 141.382812-114.617188 256-256 256-141.386719 0-256-114.617188-256-256 0-141.386719 114.613281-256 256-256 141.382812 0 256 114.613281 256 256zm0 0" fill="#fa6e62"/><path d="m392.394531 414.929688c-5.367187-20.542969 1.300781-42.207032 16.914063-56.597657 40.941406-37.726562 66.59375-91.792969 66.59375-151.855469 0-114.035156-92.441406-206.476562-206.472656-206.476562-107.570313 0-203.820313 74.359375-214.21875 178.675781-1.828126 18.328125 3.554687 30.324219 4.863281 36.589844 2.734375 10.082031.402343 20.855469-6.253907 28.902344-20.949218 25.308593-44.445312 55.292969-44.445312 62.46875 0 11.085937 27.179688 21.308593 34.996094 24.015625 1.246094.433594 2.078125 1.601562 2.078125 2.917968v18.410157c0 1.46875.65625 2.859375 1.792969 3.789062l12.824218 10.515625c2.792969 2.289063.558594 5.53125.21875 8.171875-1.171875 4.640625.230469 9.550781 3.667969 12.875 4.636719 5.628907 18.175781 12.863281 18.175781 30.042969.625 5.964844-3.042968 24.074219 10.128906 43.394531 6.480469 9.503907 16.984376 15.664063 28.476563 16.179688 10.097656.449219 20.285156-1.082031 29.957031-4.449219l24.890625-8.675781c4.050781-1.410157 8.539063.238281 10.710938 3.9375l14.277343 24.328125c2.121094 3.613281 3.035157 7.738281 3.171876 11.925781.035156 1.050781.273437 2.054687.664062 2.972656 16.355469 3.28125 33.273438 5.011719 50.597656 5.011719 55.679688 0 107.203125-17.785156 149.214844-47.976562zm0 0" fill="#eaf3f9"/><path d="m232.425781 492.089844-14.277343-32.554688c-2.171876-3.703125-6.660157-5.351562-10.710938-3.941406l-24.328125 8.476562c1.703125.738282 3.183594 1.996094 4.179687 3.691407l14.28125 24.328125c2.121094 3.613281 3.03125 7.738281 3.167969 11.925781.035157 1.050781.273438 2.050781.664063 2.96875 9.738281 1.957031 19.675781 3.34375 29.773437 4.160156-.46875-7.28125-1.34375-16.660156-2.75-19.054687zm0 0" fill="#c6e0f4"/><path d="m147.449219 467.691406c-11.492188-.511718-21.996094-6.675781-28.476563-16.179687-6.601562-9.679688-4.988281-11.867188-4.988281-23.582031v-10.554688c0-16.660156-12.6875-23.800781-16.011719-27.953125-20.367187-17.945313-20.667968-37.441406-20.667968-37.441406v-18.410157c0-1.316406-.832032-2.484374-2.078126-2.917968-7.8125-2.707032-34.992187-12.929688-34.992187-24.015625 0-7.175781 23.496094-37.160157 44.441406-62.46875 6.660157-8.046875 8.988281-18.820313 6.253907-28.902344-1.335938-6.390625-6.683594-18.308594-4.863282-36.589844 9.886719-99.164062 97.351563-171.246093 198.367188-178.128906-4.953125-.355469-9.957032-.546875-15.003906-.546875-107.570313 0-203.820313 74.359375-214.21875 178.675781-1.828126 18.328125 3.554687 30.324219 4.863281 36.589844 2.734375 10.082031.402343 20.855469-6.253907 28.902344-20.949218 25.308593-44.445312 55.292969-44.445312 62.46875 0 11.085937 27.179688 21.308593 34.996094 24.015625 1.246094.433594 2.078125 1.601562 2.078125 2.917968v18.410157c0 1.46875.65625 2.859375 1.792969 3.789062l12.824218 10.515625c2.792969 2.289063.558594 5.53125.21875 8.171875-1.171875 4.640625.230469 9.550781 3.667969 12.875 4.636719 5.628907 18.175781 12.863281 18.175781 30.042969.625 5.964844-3.042968 24.074219 10.128906 43.394531 6.480469 9.503907 16.984376 15.664063 28.476563 16.179688 10.097656.449219 20.285156-1.082031 29.957031-4.449219l17.761719-6.191406c-7.628906 1.183594-15.804687 1.660156-22.003906 1.382812zm0 0" fill="#c6e0f4"/><path d="m333.425781 155.640625c-19.917969-19.917969-52.214843-19.917969-72.136719 0-2.933593 2.9375-7.628906 2.953125-10.578124 0-19.921876-19.917969-52.21875-19.917969-72.136719 0-19.921875 19.921875-19.921875 52.21875 0 72.136719 4.292969 4.292968 67.839843 67.84375 72.136719 72.136718 2.933593 2.933594 7.628906 2.949219 10.578124 0 4.296876-4.292968 67.84375-67.84375 72.136719-72.136718 19.921875-19.917969 19.921875-52.214844 0-72.136719zm0 0" fill="#fa6e62"/><path d="m284.09375 275.570312c-4.296875-4.296874-67.84375-67.84375-72.136719-72.136718-16.691406-16.6875-19.386719-42.0625-8.113281-61.566406-9.261719 1.996093-18.074219 6.578124-25.269531 13.773437-19.921875 19.921875-19.921875 52.21875 0 72.136719 4.292969 4.292968 67.839843 67.839844 72.136719 72.136718 2.933593 2.933594 7.628906 2.949219 10.578124 0 1.613282-1.613281 11.585938-11.585937 23.636719-23.632812-.289062-.21875-.570312-.449219-.832031-.710938zm0 0" fill="#fb5c4b"/><g fill="#4c98e0"><path d="m156.664062 149.75-11.320312-9.375c-3.28125-2.71875-3.738281-7.582031-1.019531-10.863281s7.582031-3.738281 10.863281-1.019531l11.320312 9.375c3.28125 2.71875 3.738282 7.582031 1.019532 10.863281s-7.582032 3.738281-10.863282 1.019531zm0 0"/><path d="m190.285156 116.925781-5.117187-13.78125c-1.480469-3.992187.554687-8.433593 4.550781-9.914062 3.992188-1.484375 8.433594.554687 9.914062 4.546875l5.117188 13.78125c1.480469 3.992187-.554688 8.433594-4.546875 9.917968-3.980469 1.476563-8.429687-.539062-9.917969-4.550781zm0 0"/><path d="m137.929688 192.222656-14.492188-2.460937c-4.199219-.714844-7.027344-4.699219-6.3125-8.898438.710938-4.203125 4.6875-7.035156 8.894531-6.316406l14.492188 2.460937c4.203125.714844 7.027343 4.699219 6.316406 8.898438-.714844 4.210938-4.707031 7.027344-8.898437 6.316406zm0 0"/><path d="m344.472656 148.730469c-2.71875-3.28125-2.261718-8.144531 1.019532-10.863281l11.320312-9.375c3.277344-2.71875 8.144531-2.261719 10.863281 1.019531 2.714844 3.28125 2.261719 8.144531-1.023437 10.863281l-11.316406 9.375c-3.273438 2.710938-8.140626 2.269531-10.863282-1.019531zm0 0"/><path d="m311.796875 121.476562c-3.992187-1.484374-6.027344-5.925781-4.546875-9.917968l5.117188-13.78125c1.480468-3.996094 5.917968-6.03125 9.914062-4.546875 3.996094 1.480469 6.03125 5.921875 4.550781 9.914062l-5.117187 13.78125c-1.484375 4.007813-5.929688 6.027344-9.917969 4.550781zm0 0"/><path d="m365.171875 185.90625c-.710937-4.199219 2.113281-8.183594 6.316406-8.894531l14.492188-2.460938c4.203125-.710937 8.183593 2.113281 8.894531 6.3125.714844 4.203125-2.113281 8.183594-6.3125 8.898438l-14.492188 2.460937c-4.242187.710938-8.191406-2.148437-8.898437-6.316406zm0 0"/></g></svg>