<svg xmlns="http://www.w3.org/2000/svg" width="15.025" height="11.806" viewBox="0 0 15.025 11.806">
  <g id="envelope" transform="translate(0 -54.82)">
    <g id="Group_1" data-name="Group 1" transform="translate(0 54.82)">
      <path id="Path_1" data-name="Path 1" d="M1.442,58.459q.285.2,1.719,1.195t2.2,1.53l.356.256q.273.2.453.319t.436.272a2.529,2.529,0,0,0,.482.226,1.329,1.329,0,0,0,.419.075h.017a1.33,1.33,0,0,0,.419-.075,2.532,2.532,0,0,0,.482-.226q.256-.151.436-.272t.453-.319q.272-.2.356-.256l3.924-2.725a3.983,3.983,0,0,0,1.023-1.031,2.214,2.214,0,0,0,.411-1.266,1.353,1.353,0,0,0-1.342-1.342H1.341a1.2,1.2,0,0,0-.994.436A1.692,1.692,0,0,0,0,56.346a1.959,1.959,0,0,0,.461,1.145A4.162,4.162,0,0,0,1.442,58.459Z" transform="translate(0 -54.82)" fill="#00b7f3"/>
      <path id="Path_2" data-name="Path 2" d="M14.187,185.166q-2.75,1.861-4.175,2.893-.478.352-.776.549a4.788,4.788,0,0,1-.792.4,2.413,2.413,0,0,1-.922.205H7.5a2.413,2.413,0,0,1-.922-.205,4.79,4.79,0,0,1-.792-.4q-.3-.2-.776-.549-1.132-.83-4.167-2.893A4.441,4.441,0,0,1,0,184.437v6.657a1.292,1.292,0,0,0,.394.948,1.292,1.292,0,0,0,.948.394H13.684a1.346,1.346,0,0,0,1.341-1.342v-6.657A4.624,4.624,0,0,1,14.187,185.166Z" transform="translate(0 -180.63)" fill="#00b7f3"/>
    </g>
  </g>
</svg>
