<svg height="512" viewBox="0 0 60 60" width="512" xmlns="http://www.w3.org/2000/svg"><g id="016---Search-Questions" fill="none"><g id="Layer_3" transform="translate(1)"><path id="Shape" d="m48 25c.0096942 5.3302095-1.7684416 10.5096903-5.05 14.71-1.2222555 1.5923003-2.6476997 3.0177445-4.24 4.24-8.821951 6.840581-21.1963979 6.692343-29.85194918-.3576072-8.65555128-7.0499503-11.30467598-19.138418-6.39071275-29.1620566 4.91396322-10.02363868 16.09232843-15.3333527 26.96653773-12.80908262 10.8742092 2.52427008 18.570374 12.21539802 18.5661242 23.37874642z" fill="#3f51b5"/><path id="Shape" d="m24 1c-.5 0-1 .021-1.5.051 8.8753956.5497878 16.718054 5.96523651 20.3765005 14.0702154 3.6584464 8.1049789 2.5320732 17.5688924-2.9265005 24.5887846-1.2222555 1.5923003-2.6476997 3.0177445-4.24 4.24-3.8248041 2.9804179-8.4685626 4.7217401-13.31 4.991.529.035 1.062.059 1.6.059 5.3302095.0096942 10.5096903-1.7684416 14.71-5.05 1.5923003-1.2222555 3.0177445-2.6476997 4.24-4.24 5.624148-7.233877 6.6358224-17.0398539 2.607045-25.2696151-4.0287775-8.22976123-12.3940765-13.44535725-21.557045-13.4403849z" fill="#283593"/><circle id="Oval" cx="24" cy="25" fill="#02a9f4" r="20"/><path id="Shape" d="m24 5c-.506 0-1 .039-1.5.076 10.4305847.7755615 18.4975598 9.4646218 18.4975598 19.924s-8.0669751 19.1484385-18.4975598 19.924c.5.037.994.076 1.5.076 11.045695 0 20-8.954305 20-20s-8.954305-20-20-20z" fill="#0377bc"/><path id="Shape" d="m46.5 43.26-4.24 4.24-3.55-3.55c1.5923003-1.2222555 3.0177445-2.6476997 4.24-4.24z" fill="#3f51b5"/><path id="Rectangle-path" d="m43.502 44.502h5.996v5.996h-5.996z" fill="#ffdc00" transform="matrix(.707 -.707 .707 .707 -19.968 46.793)"/><path id="Shape" d="m57.12 58.12c-.5617198.5632738-1.3245087.8798486-2.12.8798486s-1.5582802-.3165748-2.12-.8798486l-6.38-6.38 4.24-4.24 6.38 6.38c1.1698135 1.1712702 1.1698135 3.0687298 0 4.24z" fill="#3f51b5"/><g fill="#f5f5f5"><path id="Shape" d="m24 32c-1.1045695 0-2-.8954305-2-2v-3.068c-.0022062-1.507668 1.1191235-2.7807952 2.615-2.969 2.5341322-.3101077 4.4258951-2.4822915 4.385-5.035-.0890873-2.6838922-2.2441078-4.8389127-4.928-4.928-1.34204-.0359266-2.6390716.4853475-3.583 1.44-.9561349.9372931-1.4930913 2.2210842-1.489 3.56 0 1.1045695-.8954305 2-2 2s-2-.8954305-2-2c-.0002399-2.4091164.9653853-4.7177605 2.6807807-6.4092865 1.7153954-1.6915261 4.0373428-2.62470882 6.4462193-2.5907135 4.5612665.0581945 8.3576692 3.5197122 8.8356417 8.0562396.4779724 4.5365275-2.51366 8.7132384-6.9626417 9.7207604v2.223c0 1.1045695-.8954305 2-2 2z"/><circle id="Oval" cx="24" cy="38" r="2"/></g></g><g id="Layer_11" fill="#000"><path id="Shape" d="m25 0c-13.800722.0154309-24.9845691 11.199278-25 25 0 20.405 23.21 32.125 39.612 20.266l13.557 13.555c.7454601.7595803 1.7667453 1.1849053 2.831 1.179 1.6136655-.0079106 3.0651277-.9830113 3.6825024-2.4739263.6173746-1.490915.2801775-3.2066836-.8555024-4.3530737l-13.561-13.561c11.861-16.405.134-39.612-20.266-39.612zm-23 25c0-12.7025492 10.2974508-23 23-23s23 10.2974508 23 23-10.2974508 23-23 23c-12.6966095-.0143284-22.98567159-10.3033905-23-23zm48.327 22.5-2.827 2.826-2.825-2.826 2.825-2.826zm7.085 9.917c-.7888669.7567226-2.0341331.7567226-2.823 0l-5.674-5.677 2.826-2.826 5.674 5.673c.7757813.7843176.7744424 2.047329-.003 2.83zm-11.325-14.157-2.827 2.826-2.06-2.064c1.01349-.8649098 1.9570902-1.80851 2.822-2.822z"/><path id="Shape" d="m44.617 29.032c-.5345918-.1379304-1.0798152.1834739-1.218.718-2.5027536 9.7149451-12.1246 15.8123146-21.9781044 13.9275369-9.8535043-1.8847777-16.54583846-11.1027225-15.28654801-21.0555172 1.25929044-9.9527947 10.03659771-17.21342284 20.04901821-16.58463824s17.8124071 8.93047434 17.8166342 18.96261854c0 .5522847.4477153 1 1 1s1-.4477153 1-1c-.0042908-11.0788493-8.6174716-20.24714244-19.6744794-20.94248334-11.0570078-.69534089-20.75091932 7.32167604-22.14311626 18.31270454-1.39219695 10.9910285 5.99665356 21.171862 16.87782846 23.2553576 10.8811748 2.0834955 21.50829-4.6476935 24.2747672-15.3755788.1379304-.5345918-.1834739-1.0798152-.718-1.218z"/><path id="Shape" d="m28 28.543c4.8935161-1.53894 7.8288974-6.5311027 6.7946444-11.5555585-1.034253-5.0244559-5.7026603-8.45142601-10.8061492-7.93254476-5.1034888.51888126-8.9866443 4.81530476-8.9884952 9.94510326 0 1.6568542 1.3431458 3 3 3s3-1.3431458 3-3c-.0017519-1.0716734.4272453-2.0990926 1.1905612-2.8513132.7633158-.7522206 1.7969059-1.1661291 2.8684388-1.1486868 2.147051.0705197 3.8710251 1.7949311 3.941 3.942.0335708 2.0417598-1.4791199 3.7796714-3.506 4.028-1.9973373.250231-3.4954878 1.9490496-3.494 3.962v3.068c0 1.6568542 1.3431458 2.9999999 3 2.9999999s3-1.3431457 3-2.9999999zm-1.22-1.743c-.4558841.1028134-.7797664.5076662-.78.975v2.225c0 .5522847-.4477153 1-1 1s-1-.4477153-1-1v-3.068c-.0024164-1.0025539.7424098-1.8498634 1.737-1.976 3.0412178-.371921 5.3117394-2.9785125 5.263-6.042-.1024021-3.2174496-2.6828022-5.8039726-5.9-5.914-1.6085541-.026813-3.1604941.5934713-4.3074339 1.7216089-1.1469398 1.1281375-1.7927896 2.6696135-1.7925661 4.2783911 0 .5522847-.4477153 1-1 1s-1-.4477153-1-1c-.0314802-4.418278 3.524722-8.0255198 7.943-8.057s8.0255198 3.524722 8.057 7.943c.0432811 3.7716404-2.5449543 7.0647746-6.22 7.914z"/><path id="Shape" d="m25 35c-1.6568542 0-3 1.3431458-3 3s1.3431458 3 3 3 3-1.3431458 3-3-1.3431458-3-3-3zm0 4c-.5522847 0-1-.4477153-1-1s.4477153-1 1-1 1 .4477153 1 1-.4477153 1-1 1z"/></g></g></svg>