<svg xmlns="http://www.w3.org/2000/svg" width="19.45" height="23.502" viewBox="0 0 19.45 23.502">
  <g id="shutdown" transform="translate(0 0)">
    <path id="Path_65" data-name="Path 65" d="M9.725,114.324a9.726,9.726,0,0,1-2.58-19.1.81.81,0,0,1,.429,1.563,8.1,8.1,0,1,0,4.477.051.81.81,0,1,1,.465-1.553,9.726,9.726,0,0,1-2.791,19.043Zm0,0" transform="translate(0 -90.822)" fill="#fff"/>
    <path id="Path_66" data-name="Path 66" d="M195.017,10.536a.81.81,0,0,1-.81-.81V.811a.81.81,0,1,1,1.621,0V9.725A.81.81,0,0,1,195.017,10.536Zm0,0" transform="translate(-185.292 0)" fill="#fff"/>
  </g>
</svg>
