<svg xmlns="http://www.w3.org/2000/svg" width="126.764" height="101.394" viewBox="0 0 126.764 101.394">
  <g id="sleepy-worker-at-work" transform="translate(0 -6.148)">
    <g id="Group_5" data-name="Group 5" transform="translate(0 6.148)">
      <path id="Path_18" data-name="Path 18" d="M0,33.051H6.364V91.843H48.788V33.051h6.364V20.91H0Z" transform="translate(0 9.551)" fill="#00b7f3"/>
      <path id="Path_19" data-name="Path 19" d="M75.477,66.77c6.411-.118,9.176-5.829,8.3-10.7a11.04,11.04,0,0,0-.27-6.324c-6.549-18.486-19.826-31.4-37.864-38.71-6.847-2.775-14.834,3-16.613,9.475a12.851,12.851,0,0,0-.136,6.636V58.224a7.348,7.348,0,0,0,7.348,7.346,7.27,7.27,0,0,0,3.465-.9A50.54,50.54,0,0,0,27.8,90.7c-1.766,11.037,15.092,15.773,16.879,4.651C47.467,77.915,57.281,67.109,75.477,66.77Zm-32.745-5.19a7.255,7.255,0,0,0,.846-3.357V39.8A36.586,36.586,0,0,1,55.833,53.255,44.533,44.533,0,0,0,42.732,61.581Z" transform="translate(29.425 -1.706)" fill="#00b7f3"/>
      <path id="Path_20" data-name="Path 20" d="M39.335,20.227a11.915,11.915,0,0,0-23.812,0H15.5c0,.08.014.157.014.237s-.014.155-.014.237h.025a11.915,11.915,0,0,0,23.812,0h.025c0-.083-.01-.159-.014-.237s.014-.157.014-.237h-.027Z" transform="translate(16.483 -3.361)" fill="#00b7f3"/>
      <path id="Path_21" data-name="Path 21" d="M84.612,39.468a109.947,109.947,0,0,0-1.459-15.115c-.241-1.7-.483-3.374-.689-5.012a3.183,3.183,0,0,0-6.316.788c.21,1.678.456,3.392.706,5.126a103.244,103.244,0,0,1,1.391,14.364,2.5,2.5,0,0,0,.017.305C80.8,66.266,70.9,67.474,59.44,68.868c-9.015,1.1-20.232,2.464-20.166,19.13a3.176,3.176,0,0,0,3.18,3.172h.008a3.182,3.182,0,0,0,3.172-3.2c-.037-10.542,4.7-11.59,14.576-12.791.592-.068,1.193-.144,1.8-.223V88.23L51.647,93.145a1.59,1.59,0,0,0,.685,3.023,1.527,1.527,0,0,0,.681-.155l10.334-4.9,9.467,4.872a1.522,1.522,0,0,0,.728.18,1.592,1.592,0,0,0,.737-3L65.2,88.488v-14C75.826,72.661,87.26,67.379,84.612,39.468Z" transform="translate(41.766 4.914)" fill="#00b7f3"/>
      <rect id="Rectangle_21" data-name="Rectangle 21" width="23.577" height="5" transform="translate(3.999 22.196)" fill="#00b7f3"/>
      <rect id="Rectangle_22" data-name="Rectangle 22" width="23.577" height="4.998" transform="translate(3.999 16.031)" fill="#00b7f3"/>
      <rect id="Rectangle_23" data-name="Rectangle 23" width="23.577" height="2.499" transform="translate(3.999 12.432)" fill="#00b7f3"/>
      <rect id="Rectangle_24" data-name="Rectangle 24" width="23.577" height="1.764" transform="translate(3.999 8.947)" fill="#00b7f3"/>
      <rect id="Rectangle_25" data-name="Rectangle 25" width="23.577" height="1.174" transform="translate(3.999 5.871)" fill="#00b7f3"/>
      <rect id="Rectangle_26" data-name="Rectangle 26" width="23.577" height="1.174" transform="translate(3.999 3.9)" fill="#00b7f3"/>
      <rect id="Rectangle_27" data-name="Rectangle 27" width="23.577" height="1.174" transform="translate(3.999 1.971)" fill="#00b7f3"/>
      <rect id="Rectangle_28" data-name="Rectangle 28" width="23.577" height="1.174" transform="translate(3.999)" fill="#00b7f3"/>
    </g>
  </g>
</svg>
