<svg xmlns="http://www.w3.org/2000/svg" width="9.082" height="8.701" viewBox="0 0 9.082 8.701">
  <path id="star" d="M8.884,4.99a.651.651,0,0,0-.361-1.111l-2.2-.32A.287.287,0,0,1,6.108,3.4L5.125,1.41a.651.651,0,0,0-1.168,0L2.973,3.4a.288.288,0,0,1-.217.157l-2.2.32A.651.651,0,0,0,.2,4.99L1.787,6.541A.288.288,0,0,1,1.87,6.8l-.375,2.19a.638.638,0,0,0,.142.528.658.658,0,0,0,.8.158L4.407,8.638a.294.294,0,0,1,.268,0L6.641,9.672a.645.645,0,0,0,.3.076.653.653,0,0,0,.5-.234.637.637,0,0,0,.142-.528L7.21,6.8a.288.288,0,0,1,.083-.255Z" transform="translate(0.001 -1.047)" fill="#3ab1ee"/>
</svg>
