<svg xmlns="http://www.w3.org/2000/svg" width="17.592" height="17.592" viewBox="0 0 17.592 17.592">
  <g id="telephone" transform="translate(-0.006)">
    <g id="Group_16" data-name="Group 16" transform="translate(0.006)">
      <path id="Path_69" data-name="Path 69" d="M13.38,56.086a1.233,1.233,0,0,0-1.863,0c-.436.432-.871.864-1.3,1.3a.257.257,0,0,1-.359.066c-.282-.154-.582-.278-.853-.447a13.514,13.514,0,0,1-3.258-2.965A7.719,7.719,0,0,1,4.58,52.173a.268.268,0,0,1,.066-.344c.436-.421.86-.853,1.289-1.285a1.237,1.237,0,0,0,0-1.907c-.34-.344-.681-.681-1.021-1.025s-.7-.707-1.054-1.054a1.24,1.24,0,0,0-1.863,0c-.439.432-.86.875-1.307,1.3a2.121,2.121,0,0,0-.666,1.431A6.064,6.064,0,0,0,.487,51.9,15.861,15.861,0,0,0,3.3,56.591,17.421,17.421,0,0,0,9.072,61.1a8.344,8.344,0,0,0,3.2.93,2.342,2.342,0,0,0,2.01-.765c.373-.417.794-.8,1.19-1.2a1.245,1.245,0,0,0,.007-1.9Q14.431,57.127,13.38,56.086Z" transform="translate(-0.006 -44.448)" fill="#3bafee"/>
      <path id="Path_70" data-name="Path 70" d="M241.822,101.206l1.351-.231A6.063,6.063,0,0,0,238.044,96l-.19,1.358a4.686,4.686,0,0,1,3.968,3.847Z" transform="translate(-229.147 -92.486)" fill="#3bafee"/>
      <path id="Path_71" data-name="Path 71" d="M248.655,2.848A9.96,9.96,0,0,0,242.944,0l-.19,1.358a8.691,8.691,0,0,1,7.354,7.127l1.351-.231A10.033,10.033,0,0,0,248.655,2.848Z" transform="translate(-233.868)" fill="#3bafee"/>
    </g>
  </g>
</svg>
