<svg xmlns="http://www.w3.org/2000/svg" width="34.495" height="34.495" viewBox="0 0 34.495 34.495">
  <g id="user_1_" data-name="user (1)" transform="translate(-0.001)">
    <g id="Group_4" data-name="Group 4" transform="translate(0.001)">
      <path id="Path_13" data-name="Path 13" d="M17.248,0A17.248,17.248,0,1,0,34.5,17.247,17.248,17.248,0,0,0,17.248,0ZM17.3,25.384H9.828c0-5.388,4.732-5.386,5.782-6.8l.12-.642a5.15,5.15,0,0,1-2.517-4.658c0-2.777,1.807-5.029,4.035-5.029s4.035,2.252,4.035,5.029A5.167,5.167,0,0,1,18.8,17.929l.137.73c1.152,1.34,5.726,1.428,5.726,6.725Z" transform="translate(-0.001)" fill="#fff"/>
    </g>
  </g>
</svg>
