<svg xmlns="http://www.w3.org/2000/svg" width="73.498" height="73.498" viewBox="0 0 73.498 73.498">
  <g id="user_1_" data-name="user (1)" transform="translate(-0.001)" opacity="0.46">
    <g id="Group_4" data-name="Group 4" transform="translate(0.001)">
      <path id="Path_13" data-name="Path 13" d="M36.749,0A36.749,36.749,0,1,0,73.5,36.749,36.749,36.749,0,0,0,36.749,0Zm.112,54.086H20.939c0-11.48,10.082-11.477,12.319-14.479l.256-1.369c-3.143-1.593-5.362-5.434-5.362-9.925C28.153,22.4,32,17.6,36.749,17.6s8.6,4.8,8.6,10.716c0,4.454-2.179,8.27-5.281,9.888l.292,1.555c2.455,2.856,12.2,3.042,12.2,14.329Z" transform="translate(-0.001)" fill="#3aafee"/>
    </g>
  </g>
</svg>
